<?xml version="1.0" standalone="yes"?>
<svg xmlns="http://www.w3.org/2000/svg" xmlns:xlink="http://www.w3.org/1999/xlink" xmlns:svg="http://www.w3.org/2000/svg" xmlns:dc="http://purl.org/dc/elements/1.1/" xmlns:cc="http://web.resource.org/cc/" xmlns:rdf="http://www.w3.org/1999/02/22-rdf-syntax-ns#" width="1359" height="877" viewBox="0 0 1359 877">
<path id="background-surface" style="fill:#fff5ad; stroke:none;" d="M0 0L0 874L433 874C426.799 865.197 417.587 858.587 410 851C391.653 832.654 372.744 814.884 354 796.961C296.977 742.435 239.785 687.785 184 632C166.339 614.339 147.661 597.661 130 580C123.666 573.666 113.517 566.655 109.179 558.83C105.106 551.482 106.488 538.24 105.91 530C104.487 509.684 102.767 489.274 100.83 469C93.5448 392.753 89.1153 316.244 81.8302 240C77.2226 191.778 75.3929 143.099 69.7145 95C68.0041 80.5114 66.5198 65.5799 65.9892 51C65.8288 46.5933 63.5605 40.2748 66.0278 36.2284C68.9454 31.4434 79.0406 31.5387 84 30.6111C101.566 27.3254 118.065 24.5753 136 25.0146C179.643 26.0837 223.386 28.0509 267 29.9606C294.988 31.1862 324.235 28.7788 352 32.4244C370.349 34.8337 389.51 33.2297 408 34.0394C448.306 35.8043 488.678 36.2737 529 38.0394C582.607 40.3867 637.364 45.0398 691 43.9846C750.209 42.8197 809.911 36.136 869 32.0895C934.56 27.5999 1000.58 26.0561 1066 19.8303C1096.58 16.9204 1127.36 16.0089 1158 13.9105C1176.85 12.6196 1196.1 9.87103 1215 10.0046C1233.65 10.1365 1252.37 13.1434 1271 13.9606C1287.68 14.692 1304.32 16.5995 1321 17.0146C1325.95 17.1379 1337.87 16.3461 1341.68 19.6034C1345.74 23.0812 1342.56 32.4314 1342.05 37C1340.14 54.0104 1337.96 70.99 1336.05 88C1328.15 158.373 1318.71 228.589 1311.17 299C1302.41 380.737 1292.34 462.411 1282.28 544C1279.49 566.65 1277.08 589.347 1274.28 612C1273.39 619.224 1274.46 631.814 1270.26 637.892C1267.33 642.119 1261.53 643.078 1257 644.692C1246.33 648.49 1235.59 652.181 1225 656.192C1182.34 672.347 1139.09 687.383 1096 702.344C936.59 757.695 779.461 820.788 619 873L619 874L1359 874L1359 0L0 0z"/>
<path id="floor-surface" style="fill:#615739; stroke:none;" d="M435 874L411 850L353 793.985L158 605C197.296 597.38 236.608 589.683 276 582.576C292.325 579.63 310.26 573.361 326.83 573.029C340.156 572.762 349.606 592.685 363 593.827C373.823 594.75 387.372 589.526 398 587.4C423.347 582.329 448.651 577.069 474 572C495.348 567.731 516.654 563.269 538 559C545.359 557.528 558.576 557.447 564.682 553.012C568.837 549.994 566.144 543.332 567.318 539.108C568.97 533.161 574.181 533.461 572 526L651 511.2L687.424 505.05L713 514.319L776 538.05L807 549L808.028 566.582L830 576.424L887 598.797L938 618.681L959 626.581L995 619.631L1112 663.424L1155 679L1155 680L1104 697.576L1021 727.308L743 826.692L661 856.053L613 873C622.558 876.889 642.549 864.86 652 861.667C688.222 849.43 723.814 835.344 760 823.003C885.63 780.157 1009.95 733.199 1135 688.692C1167.34 677.183 1199.51 665.082 1232 654.003C1241.53 650.752 1264.18 646.944 1270.26 638.775C1274.14 633.555 1273.48 621.381 1274.07 615C1275.72 597.325 1278.11 579.619 1280.28 562C1288.58 494.708 1296.1 427.32 1304.16 360C1314.55 273.123 1326.83 186.118 1334.93 99C1336.82 78.6286 1339.77 58.3324 1342.05 38C1342.58 33.264 1346.6 21.1146 1340.85 18.6034C1334.68 15.9087 1323.74 17.2563 1317 16.9606C1301.43 16.2777 1285.52 15.3072 1270 13.8303C1191.68 6.37665 1112.3 16.5484 1034 21.9105C963.363 26.7479 892.639 30.252 822 35.0895C778.349 38.0787 733.741 43.9707 690 43.9707C582.367 43.9707 474.667 33 367 33C295.001 33 223.026 26.1158 151 26C129.39 25.9653 110.455 25.7047 89 29.5756C82.8691 30.6818 72.4836 30.5485 67.3179 34.1644C63.0818 37.1296 65.4288 44.7986 65.8302 49C67.0325 61.5822 68.3479 74.3794 68.9614 87C71.6715 142.749 79.0082 198.323 82.9105 254C87.9579 326.015 93.9635 398.134 100.83 470C102.767 490.274 104.487 510.684 105.91 531C106.497 539.372 105.409 551.034 108.742 558.83C112.364 567.304 124.51 575.513 131 582C150.332 601.325 170.664 619.664 190 639C245.917 694.917 303.139 750.19 361 804.089C376.989 818.983 392.549 834.549 408 850C415.777 857.777 425.019 869.345 435 874z"/>
<path id="backsplash-surface" style="fill:#c9c5a7; stroke:none;" d="M1186 297L1193.83 214L1207.17 75L1213 12C1189.04 12.4946 1164.91 15.2729 1141 16.9105C1135.02 17.3198 1118.94 15.2625 1114.6 19.6034C1111.77 22.4406 1112.73 30.1988 1112.29 34C1110.61 48.1735 1109.61 62.7456 1108.96 77C1106.71 126.54 1101.55 176.627 1096.83 226C1095.46 240.313 1094.09 254.66 1093.09 269C1092.83 272.739 1090.6 281.299 1093.03 284.397C1096.25 288.519 1111 287.741 1116 288.424C1139.22 291.593 1162.96 292.72 1186 297z"/>
<path id="backsplash-surface-2" style="fill:#fff9d3; stroke:none;" d="M1215 12L1209.17 74L1195.83 213L1188 297C1216.18 290.273 1247.21 289.602 1276 286.155C1283.99 285.198 1304.29 286.552 1310.26 281.062C1313.73 277.868 1312.83 268.397 1313.42 264C1315.57 248.034 1317.24 231.997 1319.16 216C1324.26 173.354 1329.59 130.706 1334.17 88C1336.57 65.5369 1341.53 42.5816 1342 20L1215 12z"/>
<path id="cabinet-surface-upper-1" style="fill:#c9c5a7; stroke:none;" d="M1024 24L1014.09 173L1009.17 246L1007 275C1032.5 281.073 1063.79 284.459 1090 285C1091.15 229.308 1098.55 172.465 1103.83 117C1106.85 85.2653 1104.62 49.9859 1112 19L1024 24M932 30C926.588 72.8206 925 118.823 925 162L1013 165L1022 25L932 30M133 270C132.776 188.97 115.224 108.031 115 27L80 33.1968L68.0278 36.5887L67.9105 50L70.9105 86L80.8302 205L83.7145 240L85.5139 253.581L98 259.333L133 270z"/>
<path id="cabinet-surface-upper-2" style="fill:#fff9d3; stroke:none;" d="M117 27C117.054 108.365 134.776 189.64 135 271L229 265L220.09 114L215 30L117 27M217 30L224.09 148L231 265L319 260L315.961 196L311.039 98L308 33L217 30z"/>
<path id="cabinet-surface-upper-3" style="fill:#c9c5a7; stroke:none;" d="M851 35C845.913 75.2483 846 118.408 846 159L923 162L930 30C905.082 34.6262 876.354 35 851 35z"/>
<path id="cabinet-surface-upper-4" style="fill:#fff9d3; stroke:none;" d="M310 33L314 125L425 124L422 37L310 33z"/>
<path id="cabinet-surface-upper-5" style="fill:#c9c5a7; stroke:none;" d="M766 41L761 246L810 252C813.846 231.284 812.745 207.095 812.996 186C813.073 179.579 810.382 165.449 815.564 160.603C820.507 155.981 837.476 159 844 159C844 118.747 843.956 75.9129 849 36L766 41z"/>
<path id="cabinet-surface-upper-6" style="fill:#fff9d3; stroke:none;" d="M424 37L427 124L527 124L526 40L424 37M528 40L529 144C538.93 145.843 549.021 144.265 559 145.576C562.093 145.982 567.008 145.215 569.397 147.603C573.694 151.901 571 167.232 571 173L571 244L611 242L612 43L528 40z"/>
<path id="cabinet-surface-upper-7" style="fill:#c9c5a7; stroke:none;" d="M693 46L691 188L690 223L691.028 236.258L708 239.424L759 246L764 41L693 46z"/>
<path id="cabinet-surface-upper-8" style="fill:#fff9d3; stroke:none;" d="M614 43L613 242L688 237L691 46L614 43z"/>
<path style="fill:#615739; stroke:none;" d="M411.147 91.0324C404.854 94.6426 409.788 106.247 416.656 102.891C423.546 99.5244 418.493 86.8185 411.147 91.0324M433.326 90.9576C426.48 94.2654 430.615 106.384 437.699 103.042C444.831 99.6777 440.367 87.5549 433.326 90.9576z"/>
<path style="fill:#fff9d3; stroke:none;" d="M411.603 93.0324C407.779 95.9884 411.856 103.958 416.472 100.802C420.843 97.8135 416.284 89.4133 411.603 93.0324M433.434 93.0471C429.202 95.8073 432.862 103.984 437.686 100.953C442.073 98.1964 438.165 89.9611 433.434 93.0471z"/>
<path style="fill:#615739; stroke:none;" d="M914.119 117.046C908.311 120.229 910.489 132.895 917.671 129.852C924.688 126.879 921.496 113.004 914.119 117.046M934.108 116.801C928.096 118.813 929.025 132.163 936.071 130.263C943.221 128.335 941.933 114.182 934.108 116.801z"/>
<path style="fill:#c9c5a7; stroke:none;" d="M914.499 119.047C910.935 121.501 912.753 130.664 917.585 127.762C921.664 125.312 919.443 115.644 914.499 119.047M934.299 119.086C930.691 121.196 931.809 130.775 936.701 127.914C940.309 125.803 939.191 116.225 934.299 119.086z"/>
<path id="cabinet-surface-upper-9" style="fill:#fff9d3; stroke:none;" d="M315 127L315 143L447 141L447 126L315 127z"/>
<path id="cabinet-surface-upper-10" style="fill:#c9c5a7; stroke:none;" d="M449 126L450.603 140.821L472 142.015L527 144L527 126L449 126z"/>
<path style="fill:#8d8975; stroke:none;" d="M315 145C317.915 149.497 324.204 147.829 329 148.039C342.014 148.609 354.929 149 368 149C422.685 149 477.278 147 532 147C526.778 144.809 519.624 146.009 514 146C503.28 145.983 491.684 145.847 481 144.83C426.357 139.63 369.943 145 315 145z"/>
<path id="countertop-surface" style="fill:#fff9d3; stroke:none;" d="M472 452L544 441.271L568.972 436.397L570 416L570 361L569 148C544.278 148 519.72 149 495 149C488.626 149 472.732 146.117 467.603 150.179C463.385 153.52 466.6 165.459 466.91 170C468.122 187.69 467.972 206.302 468 224C468.122 300.044 472 375.952 472 452z"/>
<path id="cabinet-surface-1" style="fill:#c9c5a7; stroke:none;" d="M316 150L318.961 220L321 261C305.526 264.684 288.727 262.511 273 264.576C269.149 265.081 261.742 263.542 258.603 266.028C255.961 268.121 256.942 274.05 257.015 277C257.284 287.995 258.978 298.987 259 310C259.031 325.517 260.36 341.555 261.83 357C262.359 362.554 260.635 369.695 263.434 374.786C266.74 380.801 279.961 383.675 286 386.281C306.474 395.114 327.602 406.838 349 413L339 151L316 150z"/>
<path id="countertop-surface-2" style="fill:#fff9d3; stroke:none;" d="M351 151L363 468L443 456.421L468.972 451.397L470 431L469 375L464 150L351 151z"/>
<path id="cabinet-surface-2" style="fill:#c9c5a7; stroke:none;" d="M341 151L351 415L327 406C327.004 443.331 331.998 480.662 332 518C332.001 526.57 337.761 549.366 329 554C329.039 558.738 328.654 566.647 331.028 570.816C335.726 579.066 352.766 587.416 361 592L361 569L365 572L349 151L341 151M812 258L975 278L978.911 214L982 168L856 163L827 162L816.179 163.603L814.911 188L812 258z"/>
<path style="fill:#8d8975; stroke:none;" d="M913 163L913 164L916 164L913 163M938 164L938 165L941 165L938 164M962 165L962 166L967 166L962 165z"/>
<path id="cabinet-surface-4" style="fill:#fff9d3; stroke:none;" d="M977 278C983.077 277.739 1000.03 278.534 1004.4 274.258C1008.95 269.805 1006.58 253.185 1007.17 247C1009.7 220.423 1009.65 193.48 1013 167C1006.67 167.5 989.405 165.225 984.603 169.028C980.135 172.567 982.292 191.424 981.911 197C980.071 223.866 977 251.055 977 278z"/>
<path style="fill:#615739; stroke:none;" d="M946.564 179.028C941.966 182.433 944.299 193.078 943.83 198C942.291 214.176 941.189 230.745 940.996 247C940.937 251.979 938.413 259.01 940.603 263.721C942.552 267.913 962.832 270.725 966.397 267.968C970.537 264.767 968.819 248.031 969.039 243C969.71 227.688 971.902 212.333 972.001 197C972.03 192.388 973.981 186.612 972.681 182.148C971.353 177.586 950.266 176.286 946.564 179.028z"/>
<path id="cabinet-surface-5" style="fill:#c9c5a7; stroke:none;" d="M947 180L943.001 243L943.028 263.258L966 267L971 181L947 180z"/>
<path style="fill:#615739; stroke:none;" d="M826.589 182.028L824 195L823 227L824.603 238.397L846 241.834L905 248L927.397 248.972L929.089 236L931.015 201L930.397 188.024L910 185.83L850 182.015L826.589 182.028z"/>
<path style="fill:#fff9d3; stroke:none;" d="M827 183L825 237L827 237L829 183L827 183z"/>
<path id="cabinet-surface-3" style="fill:#c9c5a7; stroke:none;" d="M831 183L829 237C859.956 242.747 895.521 246.979 927 247L930 189L831 183z"/>
<path style="fill:#615739; stroke:none;" d="M619.147 206.086C613.755 208.744 616.541 219.745 622.699 216.856C628.706 214.037 625.384 203.013 619.147 206.086M601.519 206.877C596.049 209.619 598.431 220.584 604.895 217.712C611.19 214.916 607.974 203.64 601.519 206.877z"/>
<path style="fill:#fff9d3; stroke:none;" d="M619.585 208.086C616.675 210.12 618.589 217.317 622.491 214.762C625.763 212.62 623.242 205.531 619.585 208.086z"/>
<path style="fill:#615739; stroke:none;" d="M753 207C748.305 211.79 748.305 216.21 753 221L754 221C758.883 216.018 758.61 211.274 753 207z"/>
<path style="fill:#fff9d3; stroke:none;" d="M601.728 209.047C598.559 211.541 601.698 218.417 605.258 215.199C608.099 212.633 605.394 206.161 601.728 209.047z"/>
<path style="fill:#c9c5a7; stroke:none;" d="M753 209C750.961 212.843 750.961 215.156 753 219L754 219C756.113 215.014 756.316 212.251 753 209z"/>
<path style="fill:#615739; stroke:none;" d="M766.188 210.083C761.199 212.85 764.481 223.92 769.482 220.914C774.221 218.065 772.159 206.77 766.188 210.083z"/>
<path style="fill:#c9c5a7; stroke:none;" d="M767 220L769 220L770 211C764.626 211.933 764.978 215.721 767 220z"/>
<path style="fill:#615739; stroke:none;" d="M238.188 222.718C229.927 225.646 234.549 238.33 242.815 235.431C251.246 232.474 246.458 219.788 238.188 222.718M213.185 223.758C204.968 227.059 210.16 240.413 217.985 236.777C226.161 232.977 221.527 220.406 213.185 223.758z"/>
<path style="fill:#fff9d3; stroke:none;" d="M238.279 224.758C232.582 227.313 236.964 235.911 242.772 233.392C248.574 230.875 244.034 222.176 238.279 224.758M213.231 226.043C207.939 229.142 212.258 237.703 217.853 234.777C223.706 231.716 219.038 222.643 213.231 226.043z"/>
<path style="fill:#615739; stroke:none;" d="M1080.17 236.762C1072.22 239.858 1075.15 254.269 1083.82 251.417C1092.14 248.678 1088.69 233.444 1080.17 236.762M1104.3 237.958C1096.3 241.643 1099.94 256.181 1108.7 252.677C1117.22 249.269 1112.63 234.124 1104.3 237.958z"/>
<path style="fill:#c9c5a7; stroke:none;" d="M1080.14 239.047C1074.34 242.243 1078.49 253.022 1084.57 248.968C1089.17 245.892 1086.14 235.746 1080.14 239.047z"/>
<path id="backsplash-surface-wall-1" style="fill:#fff9d3; stroke:none;" d="M571 246L572 344L716 329L717 242L687 239.054L571 246z"/>
<path id="backsplash-surface-wall-2" style="fill:#c9c5a7; stroke:none;" d="M1104.28 240.047C1098.84 243.208 1102.27 253.867 1108.72 250.588C1114.52 247.641 1110.46 236.456 1104.28 240.047M719 243L718 329L724 330L727.133 313.558L741 309.576L780 311L780 312L775 312L775 313L782 313C782.835 319.605 778.823 336.492 783.603 341.262C789.777 347.422 810.499 347.699 819 349.4C844.427 354.486 871.127 363.107 897 364.911C904.756 365.451 912.281 363.159 920 363L917.897 348.95L922 340L927 342L928 342L932 323L942 322C942 315.663 939.58 302.596 947.055 299.603C958.927 294.85 975.893 300.183 988 301.87C1019.68 306.283 1051.36 310.738 1083 315.421L1112 319.579C1115.65 320.119 1121.47 319.841 1124.57 322.024C1129.7 325.64 1125.68 339.705 1125.17 345C1123.06 366.756 1120 389.143 1120 411C1177.94 415.611 1234.05 440.388 1292 445L1301.28 367L1311 284C1269.78 287.253 1228.32 297.588 1187 298.545C1169.45 298.951 1150.41 294.549 1133 292.282C1102.71 288.335 1072.32 285.021 1042 281.285C1030.28 279.841 1017.8 277.179 1006 277.179C995.099 277.179 983.875 280.984 973 279.714C920.989 273.641 867.483 269.671 816.005 260.111C810.962 259.175 810.5 254.243 805.941 253.214C779.059 247.142 746.543 243.568 719 243z"/>
<path id="backsplash-surface-wall-3" style="fill:#fff9d3; stroke:none;" d="M85 257L96 393L261 376L255 266L164 271.039L136 272.823L85 257z"/>
<path style="fill:#615739; stroke:none;" d="M493.019 286.483C486.047 288.071 488.08 295.621 488.715 301C489.954 311.502 482.296 346.317 498.981 342.517C505.727 340.98 504 333.396 504 328C504 317.5 509.19 282.8 493.019 286.483z"/>
<path style="fill:#fff9d3; stroke:none;" d="M490 289L491 341L502 340L501 288L490 289z"/>
<path style="fill:#615739; stroke:none;" d="M440.995 290.444C426.52 291.848 434 323.9 434 335C434 339.682 432.094 348.883 439.019 348.656C441.465 348.576 446.325 348.488 447.972 346.397C450.369 343.352 448.192 337.474 448.039 334C447.588 323.693 448.119 313.316 447.996 303C447.932 297.576 448.187 289.747 440.995 290.444z"/>
<path style="fill:#fff9d3; stroke:none;" d="M435 293L436 347L447 346L445 292L435 293z"/>
<path style="fill:#8d8975; stroke:none;" d="M955 300L955 301C981.485 307.525 1009.99 309.379 1037 313.271C1064.09 317.174 1091.7 323.226 1119 323C1103.76 316.427 1081.49 317.106 1065 314.729C1029.21 309.573 991.158 300.024 955 300z"/>
<path style="fill:#c9c5a7; stroke:none;" d="M944 321L956 321L957 348L958 348C958.018 346.044 957.876 343.937 958.434 342.036C962.977 326.558 983.143 345.677 968.819 352.911C966.961 353.849 965.024 353.89 963 354C963.646 356.714 963.32 361.179 965.028 363.411C969.522 369.287 990.871 369.574 998 371C1032.7 377.938 1067.92 386.469 1103 391L1108 325C1069.54 324.206 1029.08 314.058 991 308.421C980.672 306.892 970.304 305.611 960 303.92C956.421 303.332 949.868 301.107 946.434 302.643C941.947 304.649 944 316.954 944 321z"/>
<path style="fill:#e0e0e0; stroke:none;" d="M740 345C740 333.771 739.447 324.365 744 314C739.996 313.681 732.889 310.692 729.514 313.618C725.536 317.067 724.954 337.284 728.028 341.436C730.249 344.436 736.607 344.562 740 345z"/>
<path style="fill:#fafafa; stroke:none;" d="M742 346L747 346C747 339.4 744.898 325.875 749.603 320.573C755.39 314.052 773.004 317.365 781 315L782 318C782.609 313.639 778.629 313.073 774.999 313.005C767.776 312.869 752.468 312.123 746.279 316.028C739.397 320.369 743.706 338.835 742 346z"/>
<path style="fill:#615739; stroke:none;" d="M781 313L782 314L781 313M967.001 315.711C956.565 316.091 956.416 334.019 967.039 333.887C978.337 333.746 977.93 315.314 967.001 315.711z"/>
<path style="fill:#c9c5a7; stroke:none;" d="M963.434 319.032C957.845 322.744 962.46 335.934 969.347 330.971C974.727 327.096 970.072 314.623 963.434 319.032z"/>
<path style="fill:#fafafa; stroke:none;" d="M750 345L779 342L780 319C774.263 319.016 754.725 318.172 751.028 322.742C747.64 326.929 750 339.754 750 345z"/>
<path style="fill:#464240; stroke:none;" d="M932 323L929 335L933 335L932 349L928 345L917 347C917.59 354.416 924.839 355.643 928 349L930 353L933 353C936.417 344.923 930.439 330.871 941 327L939 334L939 335L939 336C940.501 337.812 940.158 338.022 938 339L938 340L948 335L943 334L943 327L951 325C951.263 328.41 951.679 329.901 955 331L955 336L956 336L956 321L932 323z"/>
<path style="fill:#838383; stroke:none;" d="M938 323L938 324L948 322L938 323z"/>
<path style="fill:#fff9d3; stroke:none;" d="M1105 391L1118.97 387.411L1121.09 370L1125 324L1111.03 326.603L1108.83 343L1105 391z"/>
<path style="fill:#c9c5a7; stroke:none;" d="M950 325L943 327L943 334L948 335L944 339L951 341L950 325M934 341L941 339L939 336L939 335L939 334L941 327C934.326 328.452 935.056 335.331 934 341z"/>
<path style="fill:#615739; stroke:none;" d="M995 328C993.267 333.118 990.76 343.754 994.028 348.683C996.095 351.801 1001.69 351.676 1005 352.25C1014.34 353.873 1023.65 355.685 1033 357.247C1035.98 357.745 1040.76 359.478 1043.68 358.307C1047.45 356.801 1048.43 339.599 1045.4 336.988C1040.48 332.751 1026.36 333.132 1020 332.08C1011.67 330.703 1003.3 329.565 995 328z"/>
<path style="fill:#323230; stroke:none;" d="M951 330C951 336.961 950.954 343.392 957 348L957 335L955 331L951 330z"/>
<path style="fill:#c9c5a7; stroke:none;" d="M996 330L995 349L1044 357L1045 338L996 330z"/>
<path style="fill:#8d8975; stroke:none;" d="M572 346L572 374L637 365.845L687 360.094L728 369.576L813 390C813.003 385.873 812.359 380.628 816.228 377.938C821.4 374.343 831.853 374.843 838 374C855.677 371.577 874.159 367.148 892 367L892 366L783 344C781.184 349.848 773.281 348.357 768 348.95C760.739 349.765 751.065 353.181 744 352.481C736.899 351.778 731.512 347.535 724 349L724 332C706.578 328.765 686.463 333.625 669 335.714C636.81 339.566 604.314 343.45 572 346z"/>
<path style="fill:#615739; stroke:none;" d="M1074 353C1064.76 355.898 1058.63 370.968 1072 373.472C1086.11 376.115 1083.56 357.98 1075 353C1084.78 349.933 1089.64 333.596 1075.99 332.322C1061.84 331.002 1065.85 348.262 1074 353z"/>
<path style="fill:#c9c5a7; stroke:none;" d="M1073.04 334.762C1064.71 336.099 1067.42 352.299 1075.96 350.069C1083.89 347.995 1081.36 333.425 1073.04 334.762z"/>
<path style="fill:#737373; stroke:none;" d="M929 335L928 342L932 342L933 335L929 335z"/>
<path style="fill:#838383; stroke:none;" d="M934 335L934 339L935 339L934 335z"/>
<path style="fill:#615739; stroke:none;" d="M964.015 335.747C954.073 338.577 957.573 355.879 967.907 353.562C978.051 351.287 974.291 332.821 964.015 335.747z"/>
<path style="fill:#e0e0e0; stroke:none;" d="M1079 335L1080 336L1079 335z"/>
<path style="fill:#c9c5a7; stroke:none;" d="M964.043 337.971C957.229 339.514 959.526 353.77 966.857 351.338C972.876 349.341 970.7 336.463 964.043 337.971z"/>
<path style="fill:#fff9d3; stroke:none;" d="M1081 337L1082 338L1081 337z"/>
<path style="fill:#bb9343; stroke:none;" d="M935 346L941 345L941 344L939 343L954 344C949.453 339.408 933.228 335.462 935 346z"/>
<path style="fill:#5b5d5d; stroke:none;" d="M922 340L918 346L918 347L928 345L932 349L932 342L922 340z"/>
<path style="fill:#fff9d3; stroke:none;" d="M971 340L972 341L971 340z"/>
<path style="fill:#d9ab4d; stroke:none;" d="M939 343L941 344L941 345L938 345L938 346L949 346L949 345L945 344L945 343L950 343C946.244 340.438 943.006 341.305 939 343z"/>
<path style="fill:#e0be6d; stroke:none;" d="M945 343L945 344L949 345C945.203 348.878 940.122 348 935 348L935 351L954 350L955 344L945 343z"/>
<path style="fill:#1f1f1f; stroke:none;" d="M723.333 344.667L723.667 345.333L723.333 344.667z"/>
<path style="fill:#323230; stroke:none;" d="M726 344L740 349L726 344z"/>
<path style="fill:#464240; stroke:none;" d="M742 348L742 351L773 346.428L783 344L742 348z"/>
<path style="fill:#c5953d; stroke:none;" d="M954 345L953 349L962 356L954 345z"/>
<path style="fill:#dd8521; stroke:none;" d="M935 346L935 347L949 347L935 346z"/>
<path style="fill:#8b5521; stroke:none;" d="M935 347L935 348L941 348L935 347z"/>
<path style="fill:#b98735; stroke:none;" d="M928 349L926 354L927 354L928 349z"/>
<path style="fill:#f7bb43; stroke:none;" d="M934 350L932 357L959 354C953.852 346.468 941.814 351.244 934 350z"/>
<path style="fill:#f1b139; stroke:none;" d="M928 351L932 359L928 351z"/>
<path style="fill:#7d6147; stroke:none;" d="M931 352L932 355L931 352z"/>
<path style="fill:#838383; stroke:none;" d="M920 353L920 363L921 363L920 353z"/>
<path style="fill:#f98d03; stroke:none;" d="M927 353C926.406 355.011 924.862 369.078 930.445 365.824C933.543 364.019 932.106 359.351 937.019 359.478C942.345 359.615 954.97 369.74 959.481 361.682C965.472 350.983 935.555 352.914 932 359L927 353z"/>
<path style="fill:#cd7505; stroke:none;" d="M962 353L961 363L962 363L962 353z"/>
<path style="fill:#b55f11; stroke:none;" d="M921 354C921.005 361.383 923.072 368.63 931 371L931 370C926.335 365.387 926.004 360.28 926 354L921 354z"/>
<path style="fill:#e0be6d; stroke:none;" d="M930 354L932 357L930 354z"/>
<path style="fill:#c9c5a7; stroke:none;" d="M1069.23 357.032C1062.32 361.148 1067.96 375.283 1075.77 370.806C1082.72 366.822 1077.23 352.267 1069.23 357.032z"/>
<path style="fill:#f55507; stroke:none;" d="M963 358L962 363L960 361C951.851 369.321 944.576 358.56 936.059 359.242C931.868 359.577 931.498 365.074 928 367L931 370L929 374C941.774 377.147 951.887 376.922 963 371L963 358z"/>
<path style="fill:#fff5ad; stroke:none;" d="M1079 358L1080 359L1079 358z"/>
<path id="countertop-surface-3" style="fill:#fff9d3; stroke:none;" d="M1080 360L1081 361L1080 360M612 500L665 490.75L682.972 486.262L684.015 476L685 452L686 362L632 368.282L614.028 371.603L613 381L613 406L612 500z"/>
<path id="cabinet-surface-6" style="fill:#c9c5a7; stroke:none;" d="M688 362C688 392.717 687 423.276 687 454C687 462.063 682.473 479.725 687.028 486.581C689.518 490.329 697.023 491.302 701 492.808C713.932 497.706 728.327 504.952 742 507L745 410L745.089 387L744.971 376.564L730 371.79L688 362z"/>
<path style="fill:#772d0d; stroke:none;" d="M920 363L921 373L922 373L921 370L924 370L924 369L920 363z"/>
<path style="fill:#8d8975; stroke:none;" d="M913 365L913 366L919 366L913 365z"/>
<path style="fill:#ad3f0f; stroke:none;" d="M922 365L924 370L921 370L921 371L922 374C926.131 374.389 928.238 374.236 931 371L922 365z"/>
<path style="fill:#8d8975; stroke:none;" d="M906 366L906 367L912 367L906 366M963.667 366.333L964.333 366.667L963.667 366.333M899 367L899 368L905 368L899 367M919 367L839 379L839 380L937 401L937 400L933 395C952.056 388.223 972.143 389.208 992 392.275C998.959 393.35 1010.11 394.505 1011 403L1079 392L1079 391L963 369L967 374L967 375C953.999 381.067 926.437 381.052 919 367M967 367L967 368L970 368L967 367M892 368L892 369L898 369L892 368M972 368L972 369L975 369L972 368M877 370L877 371L891 370L877 370M977 369L977 370L980 370L977 369M982 370L982 371L985 371L982 370z"/>
<path style="fill:#fff9d3; stroke:none;" d="M572 508L610 501L611 371L583 374.155L573.028 376.603L572 386L572 411L572 508z"/>
<path style="fill:#8d8975; stroke:none;" d="M870 371L870 372L876 372L870 371z"/>
<path style="fill:#bd7353; stroke:none;" d="M960 371L958 376L965 375L965 374L963 371L960 371z"/>
<path style="fill:#8d8975; stroke:none;" d="M987 371L987 372L991 372L987 371M863 372L863 373L869 373L863 372z"/>
<path style="fill:#f58147; stroke:none;" d="M946 372L946 373L957 374L946 372z"/>
<path style="fill:#615739; stroke:none;" d="M963 372L965 374L965 375L927 375L927 376C939.026 377.528 956.043 381.712 967 375L967 374L963 372z"/>
<path style="fill:#8d8975; stroke:none;" d="M992 372L992 373L996 373L992 372M834 376L834 377L862 374L834 376z"/>
<path style="fill:#f9b591; stroke:none;" d="M945 373L945 374L956 374L945 373z"/>
<path style="fill:#8d8975; stroke:none;" d="M998 373L998 374L1001 374L998 373M1003 374L1003 375L1006 375L1003 374z"/>
<path style="fill:#615739; stroke:none;" d="M863 380L863 381C874.551 389.128 895.327 389.35 909 387.715C914.6 387.045 922.05 387.179 924 381C909.493 373.668 876.724 369.539 863 380z"/>
<path style="fill:#8d8975; stroke:none;" d="M1008 375L1008 376L1011 376L1008 375z"/>
<path id="cabinet-surface-7" style="fill:#c9c5a7; stroke:none;" d="M748 376L745 474L744.911 497L745.029 507.501L761 514.576L808 531C808 496.331 811.944 461.649 812 427C812.013 419.207 816.589 398.812 811.972 392.564C809.089 388.662 798.498 387.964 794 387C778.624 383.706 763.223 379.94 748 376z"/>
<path style="fill:#8d8975; stroke:none;" d="M1013 376L1013 377L1017 377L1013 376M820 378L820 379L863 388.349L935 404.651L973 412.907L1005 408.081L1096 393L1096 392L1085 390L1085 393C1057.79 393.562 1028.87 401.908 1002 406.414C992.466 408.012 981.677 411.367 972 410.895C959.865 410.303 946.811 405.684 935 402.884C901.579 394.963 865.192 382.793 831 380L833 378L820 378M865 380C877.024 389.609 908.294 388.133 922 383C917.589 378.815 910.843 378.469 905 377.925C892.313 376.745 877.06 374.91 865 380M1018 377L1018 378L1022 378L1018 377M99 395L99 396C109.035 402.164 119.093 408.323 129 414.692C134.036 417.93 140.042 423.329 146 424.542C159.963 427.384 179.823 420.685 194 419.166C236.434 414.62 279.38 405.83 322 404C311.097 395.748 294.585 391.552 282 386.15C275.496 383.359 268.115 378.768 261 378.106C239.849 376.138 215.135 382.571 194 384.834C162.347 388.223 130.578 391.009 99 395M1023 378L1023 379L1027 379L1023 378M1028 379L1028 380L1032 380L1028 379z"/>
<path id="cabinet-surface-8" style="fill:#c9c5a7; stroke:none;" d="M815 380L810.911 512L809 551L810.028 565.501L821 571L850 582.203L959 625L963.089 563L973 415L865 390.576L815 380z"/>
<path style="fill:#8d8975; stroke:none;" d="M1034 380L1034 381L1037 381L1034 380M1039 381L1039 382L1043 382L1039 381M1044 382L1044 383L1048 383L1044 382M1049 383L1049 384L1053 384L1049 383M1054 384L1054 385L1058 385L1054 384z"/>
<path style="fill:#615739; stroke:none;" d="M1006 388C1012.18 395.076 1024.33 394.1 1033 393.996C1035.18 393.97 1042.58 394.301 1042.65 390.83C1042.72 387.494 1036.31 386.638 1034 386.3C1024.8 384.956 1014.61 383.832 1006 388z"/>
<path style="fill:#8d8975; stroke:none;" d="M1059 385L1059 386L1064 386L1059 385M1065 386L1065 387L1069 387L1065 386M1009 388L1009 389C1018.8 393.136 1031.68 392.915 1042 391C1032.64 385.285 1019.33 387.556 1009 388M1070 387L1070 388L1074 388L1070 387M1075 388L1075 389L1079 389L1075 388M1080 389L1080 390L1084 390L1080 389z"/>
<path style="fill:#fff9d3; stroke:none;" d="M998 411L997 432C1025.88 430.76 1056.65 422.06 1085 416.4C1092.94 414.813 1110.16 415.168 1116.4 409.987C1119.96 407.024 1119 395.343 1119 391L998 411z"/>
<path style="fill:#8d8975; stroke:none;" d="M935 396L935 398C955.05 405.476 989.985 410.798 1010 401L1010 399C990.159 391.357 954.802 386.061 935 396z"/>
<path id="cabinet-surface-9" style="fill:#c9c5a7; stroke:none;" d="M97 397L105.91 507L108.83 542L111.027 559L124 573L155 602C153.906 597.932 151.137 581.712 156 581L148.09 471L146.015 443L143.972 426.518L131 417.343L97 397z"/>
<path style="fill:#8d8975; stroke:none;" d="M937.667 401.333L938.333 401.667L937.667 401.333M941.667 402.333L942.333 402.667L941.667 402.333M950.667 404.333L951.333 404.667L950.667 404.333z"/>
<path style="fill:#fff9d3; stroke:none;" d="M324 405C305.366 410.56 283.323 410.201 264 412.718C258.416 413.446 246.032 412.421 241.607 416.027C239.01 418.144 240.838 423.192 240.961 426C241.398 435.993 241.542 446.063 242.715 456C246.962 491.998 248.996 530.752 249 567C274.778 560.331 305.408 553.145 332 552C329.42 538.104 330.578 523.107 329.961 509C329.145 490.375 327.226 471.642 327.004 453C326.839 439.126 329.377 417.814 324 405z"/>
<path style="fill:#8d8975; stroke:none;" d="M955 405L955 406L984 408L955 405z"/>
<path style="fill:#fff9d3; stroke:none;" d="M975 415L970.911 477L961 625C967.308 623.554 987.51 620.89 990.397 614.722C991.87 611.575 993.055 602.626 990.973 599.648C988.76 596.483 985.014 596.398 984.232 591.981C982.519 582.307 985.606 569.876 986.039 560C988.199 510.762 995.994 461.294 996 412L975 415z"/>
<path style="fill:#8d8975; stroke:none;" d="M1002 433L1002 434C1035 446.451 1072.75 450.811 1107 459.373C1120.29 462.697 1133.71 465.554 1147 468.873C1154.14 470.657 1162.59 473.987 1170 473.736C1181.35 473.352 1193.95 468.503 1205 465.884C1232.22 459.434 1260.3 450.73 1288 447C1277.12 441.771 1261.86 441.172 1250 438.8C1224.32 433.666 1198.66 428.413 1173 423.199C1155.92 419.728 1134.41 411.245 1117 412.518C1078.41 415.339 1040.67 431.335 1002 433z"/>
<path style="fill:#fff9d3; stroke:none;" d="M147 427L155.83 545L157.91 572L159.603 581.883L182 578.919L247 567L238 416C208.294 417.276 176.237 421.569 147 427z"/>
<path id="cabinet-surface-10" style="fill:#c9c5a7; stroke:none;" d="M997 435L993.911 477L988.83 552L986.83 582L987.028 594.351L1007 602.692L1062 622L1066.17 575L1072.99 494L1075.09 466L1074.97 454.728L1054 448.576L997 435z"/>
<path style="fill:#fff9d3; stroke:none;" d="M569 439C539.964 447.823 506.066 448.843 476 453.272C438.921 458.734 400.423 468.393 363 470L367 573L514 544.2L554 536.4L569.396 532.836L570 511L570 462L569 439M1153 654L1160 652L1159 678L1238 649.947L1268.26 638.298L1271.17 623L1275.28 588L1292 448C1261.68 451.916 1230.7 461.332 1201 468.626C1194.06 470.329 1175.56 471.031 1171.02 476.728C1168.53 479.858 1169.21 486.234 1168.83 490C1167.77 500.647 1166.97 511.382 1165.71 522C1160.61 565.154 1153.36 610.563 1153 654z"/>
<path id="cabinet-surface-11" style="fill:#c9c5a7; stroke:none;" d="M1078 454L1071.09 538L1064 623L1118 642.692L1151 654C1151.87 611.61 1157.89 567.054 1163.42 525C1164.99 513.14 1166.16 500.94 1166.98 489C1167.21 485.56 1169.19 479.585 1166.97 476.564C1163.64 472.013 1148.42 470.894 1143 469.651C1121.33 464.677 1099.41 460.03 1078 454z"/>
<path style="fill:#fff9d3; stroke:none;" d="M572 524L686 503L686 489C659.031 491.146 631.636 498.771 605 503.576C597.199 504.983 579.626 504.8 573.603 509.988C570.541 512.627 572 520.35 572 524z"/>
<path id="cabinet-surface-12" style="fill:#c9c5a7; stroke:none;" d="M688 490L689.028 502.301L715 513.05L776 536.05L807 547C807.469 543.289 809.139 537.979 807.397 534.419C804.463 528.424 785.151 524.889 779 522.692C748.673 511.862 718.624 499.965 688 490z"/>
<path id="floor-surface-main" style="fill:#737373; stroke:none;" d="M572 526C573.589 533.019 568.963 532.69 567.318 538.224C565.881 543.058 569 549.694 563.852 553.012C556.943 557.464 544.024 557.595 536 559.2C514.987 563.402 494.015 567.798 473 572C447.651 577.069 422.347 582.329 397 587.4C387.03 589.394 373.096 594.965 363 593.633C349.761 591.886 340.603 572.764 327 572.839C305.218 572.96 280.393 581.328 259 585.6C225.537 592.283 191.03 596.454 158 605L182 629L237 682.089L361 802.089L412 851.999L436 873.397L458 874L506 874L576 874L612 873.674L647 861.424L704 841.053L1008 732.308L1103 698.308L1155 680L1155 679L1037 634.95L994 618.941L960 626.437L939 618.681L888 598.797L832 576.811L808.603 566.582L807 549L721 516.95L687 504.807L648 511.6L572 526z"/>
<path style="fill:#fff9d3; stroke:none;" d="M564 536C549.308 540.646 533.121 542.176 518 545.2C486.373 551.524 454.7 557.672 423 563.611C404.93 566.997 380.081 577.005 362 573L363 592L427 579.424L515 561.789L565 552L564 536M326 554C312.186 558.676 296.359 559.834 282 562.424C254.989 567.298 228.042 572.543 201 577.25C188.349 579.452 167.091 587.874 155 583L157 603C214.163 595.618 270.566 575.571 328 571L326 554z"/>
<path id="cabinet-surface-13" style="fill:#c9c5a7; stroke:none;" d="M994 600C993.803 604.585 991.485 611.255 993.603 615.581C995.167 618.774 1000.95 619.812 1004 620.95L1032 631.424C1073.06 646.911 1114.68 666.449 1157 678L1159 654C1144.21 658.784 1123.16 646.554 1109 641.192C1071.84 627.119 1032.63 609.155 994 600z"/>
<path style="fill:#e0e0e0; stroke:none;" d="M0 874L0 875L1359 875L1324 874L1244 874L965 874L0 874z"/>
<path style="fill:#fafafa; stroke:none;" d="M0 875L0 877L1359 877L1359 875L0 875z"/>
</svg>
